<svg xmlns="http://www.w3.org/2000/svg" width="81" height="93" viewBox="0 0 81 93">
  <path fill="#FFF" stroke="#FFF" stroke-width="3" d="M54.4,10 L16,32.1 L16,76.4 L54.4,98.6 L92.8,76.4 L92.8,32.1 L54.4,10 Z M73.3,42.7 L55,32.1 L55,11.6 L91.1,32.5 L73.3,42.7 Z M36,44.4 L53.8,54.7 L53.8,75.2 L36,64.9 L36,44.4 Z M55,54.6 L72.8,44.3 L72.8,64.8 L55,75.2 L55,54.6 Z M54.4,53.6 L36.6,43.4 L54.4,33.1 L72.2,43.4 L54.4,53.6 Z M53.8,32.1 L35.5,42.7 L17.7,32.5 L53.8,11.6 L53.8,32.1 Z M34.9,43.7 L34.9,64.9 L17.1,75.2 L17.1,33.4 L34.9,43.7 Z M35.4,65.9 L53.8,76.5 L53.8,97 L17.7,76.1 L35.4,65.9 Z M55,76.5 L73.4,65.9 L91.2,76.2 L55,97 L55,76.5 Z M73.9,64.9 L73.9,43.7 L91.7,33.4 L91.7,75.1 L73.9,64.9 Z" transform="translate(-14 -8)"/>
</svg>
